# xmcd
#
# Track frame offsets:
#	150
#	11890
#	24592
#	39522
#	54512
#	66979
#	83698
#	94083
#	111622
#	129429
#	143540
#	159098
#
# Disc length: 2305 seconds
# Revision: 0
# Processed by: cddbd v1.5.2PL0 Copyright (c) Steve Scherf et al.
# Submitted via: dBpowerAMP V12.0
#
DISCID=9808ff0c
DTITLE=The Tuttles with A.J. Lee - Introducing The Tuttles with A.J. Lee
DYEAR=2010
DGENRE=Bluegrass
TTITLE0=It Takes a Train to Cry
TTITLE1=Where the Wild River Rolls
TTITLE2=It's a Long Road
TTITLE3=El Cumbanchero
TTITLE4=Master's Garden
TTITLE5=White Freightliner Blues
TTITLE6=Train on the Island
TTITLE7=Red Rose Bouquet
TTITLE8=Gypsy Palo Alto
TTITLE9=Wayside - Back in Time
TTITLE10=Pins and Needles
TTITLE11=Katie Cruel
EXTD=
EXTT0=
EXTT1=
EXTT2=
EXTT3=
EXTT4=
EXTT5=
EXTT6=
EXTT7=
EXTT8=
EXTT9=
EXTT10=
EXTT11=
PLAYORDER=
